<svg width="72" height="72" viewBox="0 0 72 72" fill="none" xmlns="http://www.w3.org/2000/svg">
<path d="M34.7621 59.013C28.1279 59.013 22.7303 53.4203 22.7303 46.5463V37.9235H19.9068C13.2726 37.9235 7.875 32.3308 7.875 25.4569C7.875 18.5829 13.2726 12.9902 19.9068 12.9902H52.0932C58.7274 12.9902 64.125 18.5829 64.125 25.4569C64.125 32.3308 58.7274 37.9235 52.0932 37.9235H49.3623C48.1868 37.9235 47.2338 36.9361 47.2338 35.718C47.2338 34.5 48.1868 33.5125 49.3623 33.5125H52.0932C56.3802 33.5125 59.8683 29.8984 59.8683 25.4564C59.8683 21.0145 56.3802 17.4003 52.0932 17.4003H19.9068C15.6198 17.4003 12.1317 21.0145 12.1317 25.4564C12.1317 29.8984 15.6198 33.5125 19.9068 33.5125H24.8589C26.0344 33.5125 26.9874 34.5 26.9874 35.718V46.5459C26.9874 50.9878 30.4755 54.6019 34.7625 54.6019C39.0495 54.6019 42.5376 50.9878 42.5376 46.5459V43.8309C42.5376 40.5734 39.9797 37.9235 36.8362 37.9235H31.7367C30.8618 37.9235 30.0761 37.3686 29.7561 36.5249C29.436 35.6812 29.6467 34.7206 30.2876 34.1029L36.9745 27.6619H28.1902C27.0147 27.6619 26.0617 26.6745 26.0617 25.4564C26.0617 24.2384 27.0147 23.2509 28.1902 23.2509H42.3897C43.2646 23.2509 44.0503 23.8058 44.3703 24.6495C44.6904 25.4933 44.4796 26.4539 43.8387 27.0715L37.147 33.5175C42.495 33.6881 46.7944 38.2492 46.7944 43.8309V46.5459C46.7944 53.4198 41.3967 59.0125 34.7625 59.0125L34.7621 59.013Z" fill="#1A1A1A" style="fill:#1A1A1A;fill:color(display-p3 0.1020 0.1020 0.1020);fill-opacity:1;"/>
</svg>
